<mxfile host="Electron" modified="2024-04-06T09:50:43.677Z" agent="Mozilla/5.0 (Macintosh; Intel Mac OS X 10_15_7) AppleWebKit/537.36 (KHTML, like Gecko) draw.io/21.6.1 Chrome/112.0.5615.204 Electron/24.6.1 Safari/537.36" etag="36TT4OfCLaLFpXgb3mDo" version="21.6.1" type="device">
  <diagram name="Page-1" id="RrcWq4_QC9YrLvJBkymK">
    <mxGraphModel dx="1434" dy="854" grid="1" gridSize="10" guides="1" tooltips="1" connect="1" arrows="1" fold="1" page="1" pageScale="1" pageWidth="827" pageHeight="1169" math="0" shadow="0">
      <root>
        <mxCell id="0" />
        <mxCell id="1" parent="0" />
        <mxCell id="QuSLitA5PdBHhPOCg3-z-5" value="" style="fontStyle=1;align=right;verticalAlign=top;childLayout=stackLayout;horizontal=1;horizontalStack=0;resizeParent=1;resizeParentMax=0;resizeLast=0;marginBottom=0;allowArrows=0;connectable=0;strokeColor=#000000;strokeWidth=1;fontSize=12;fillColor=default;shadow=0;dropTarget=0;" vertex="1" parent="1">
          <mxGeometry x="230" y="430" width="500" height="260" as="geometry" />
        </mxCell>
        <mxCell id="QuSLitA5PdBHhPOCg3-z-6" value="ksch.patientmanagement" style="html=1;align=center;spacingLeft=4;verticalAlign=middle;strokeColor=none;fillColor=none;fontStyle=1;strokeWidth=1;fontSize=14;" vertex="1" parent="QuSLitA5PdBHhPOCg3-z-5">
          <mxGeometry width="500" height="30" as="geometry" />
        </mxCell>
        <mxCell id="QuSLitA5PdBHhPOCg3-z-7" value="" style="shape=component;jettyWidth=8;jettyHeight=4;fontSize=14;fillColor=default;strokeColor=none;strokeWidth=1;" vertex="1" parent="QuSLitA5PdBHhPOCg3-z-6">
          <mxGeometry x="1" width="5" relative="1" as="geometry">
            <mxPoint x="-7" y="7" as="offset" />
          </mxGeometry>
        </mxCell>
        <mxCell id="QuSLitA5PdBHhPOCg3-z-8" value="" style="swimlane;swimlaneBody=1;swimlaneHead=1;horizontal=1;swimlaneLine=0;collapsible=0;fontStyle=0;strokeColor=none;strokeWidth=1;fontSize=12;fillColor=none;" vertex="1" parent="QuSLitA5PdBHhPOCg3-z-5">
          <mxGeometry y="30" width="500" height="230" as="geometry" />
        </mxCell>
        <mxCell id="QuSLitA5PdBHhPOCg3-z-9" value="api" style="rounded=0;whiteSpace=wrap;html=1;fontStyle=1" vertex="1" parent="QuSLitA5PdBHhPOCg3-z-8">
          <mxGeometry x="50" y="40" width="120" height="60" as="geometry" />
        </mxCell>
        <mxCell id="QuSLitA5PdBHhPOCg3-z-12" value="core" style="rounded=0;whiteSpace=wrap;html=1;fontStyle=1" vertex="1" parent="QuSLitA5PdBHhPOCg3-z-8">
          <mxGeometry x="290" y="40" width="120" height="60" as="geometry" />
        </mxCell>
        <mxCell id="QuSLitA5PdBHhPOCg3-z-13" value="" style="endArrow=classic;html=1;rounded=0;" edge="1" parent="QuSLitA5PdBHhPOCg3-z-8" source="QuSLitA5PdBHhPOCg3-z-12" target="QuSLitA5PdBHhPOCg3-z-9">
          <mxGeometry width="50" height="50" relative="1" as="geometry">
            <mxPoint x="-250" y="149.9999999999999" as="sourcePoint" />
            <mxPoint x="-200" y="99.99999999999989" as="targetPoint" />
          </mxGeometry>
        </mxCell>
        <mxCell id="QuSLitA5PdBHhPOCg3-z-14" value="implementation" style="edgeLabel;html=1;align=center;verticalAlign=middle;resizable=0;points=[];" vertex="1" connectable="0" parent="QuSLitA5PdBHhPOCg3-z-13">
          <mxGeometry x="-0.2571" y="-2" relative="1" as="geometry">
            <mxPoint x="-15" y="-8" as="offset" />
          </mxGeometry>
        </mxCell>
        <mxCell id="QuSLitA5PdBHhPOCg3-z-15" value="" style="fontStyle=1;align=right;verticalAlign=top;childLayout=stackLayout;horizontal=1;horizontalStack=0;resizeParent=1;resizeParentMax=0;resizeLast=0;marginBottom=0;allowArrows=0;connectable=0;strokeColor=#000000;strokeWidth=1;fontSize=12;fillColor=default;shadow=0;dropTarget=0;" vertex="1" parent="1">
          <mxGeometry x="230" y="200" width="500" height="180" as="geometry" />
        </mxCell>
        <mxCell id="QuSLitA5PdBHhPOCg3-z-16" value="ksch.commons" style="html=1;align=center;spacingLeft=4;verticalAlign=middle;strokeColor=none;fillColor=none;fontStyle=1;strokeWidth=1;fontSize=14;" vertex="1" parent="QuSLitA5PdBHhPOCg3-z-15">
          <mxGeometry width="500" height="30" as="geometry" />
        </mxCell>
        <mxCell id="QuSLitA5PdBHhPOCg3-z-17" value="" style="shape=component;jettyWidth=8;jettyHeight=4;fontSize=14;fillColor=default;strokeColor=none;strokeWidth=1;" vertex="1" parent="QuSLitA5PdBHhPOCg3-z-16">
          <mxGeometry x="1" width="5" relative="1" as="geometry">
            <mxPoint x="-7" y="7" as="offset" />
          </mxGeometry>
        </mxCell>
        <mxCell id="QuSLitA5PdBHhPOCg3-z-18" value="" style="swimlane;swimlaneBody=1;swimlaneHead=1;horizontal=1;swimlaneLine=0;collapsible=0;fontStyle=0;strokeColor=none;strokeWidth=1;fontSize=12;fillColor=none;" vertex="1" parent="QuSLitA5PdBHhPOCg3-z-15">
          <mxGeometry y="30" width="500" height="150" as="geometry" />
        </mxCell>
        <mxCell id="QuSLitA5PdBHhPOCg3-z-1" value="data" style="rounded=0;whiteSpace=wrap;html=1;fontStyle=1" vertex="1" parent="QuSLitA5PdBHhPOCg3-z-18">
          <mxGeometry x="50" y="40" width="120" height="60" as="geometry" />
        </mxCell>
        <mxCell id="QuSLitA5PdBHhPOCg3-z-2" value="spring-data-commons" style="rounded=0;whiteSpace=wrap;html=1;fontStyle=1" vertex="1" parent="1">
          <mxGeometry x="770" y="270" width="120" height="60" as="geometry" />
        </mxCell>
        <mxCell id="QuSLitA5PdBHhPOCg3-z-3" value="" style="endArrow=classic;html=1;rounded=0;" edge="1" parent="1" source="QuSLitA5PdBHhPOCg3-z-1" target="QuSLitA5PdBHhPOCg3-z-2">
          <mxGeometry width="50" height="50" relative="1" as="geometry">
            <mxPoint x="400" y="299.9999999999999" as="sourcePoint" />
            <mxPoint x="450" y="249.9999999999999" as="targetPoint" />
          </mxGeometry>
        </mxCell>
        <mxCell id="QuSLitA5PdBHhPOCg3-z-4" value="implementation" style="edgeLabel;html=1;align=center;verticalAlign=middle;resizable=0;points=[];" vertex="1" connectable="0" parent="QuSLitA5PdBHhPOCg3-z-3">
          <mxGeometry x="-0.2261" relative="1" as="geometry">
            <mxPoint x="21" y="-10" as="offset" />
          </mxGeometry>
        </mxCell>
        <mxCell id="QuSLitA5PdBHhPOCg3-z-10" value="" style="endArrow=classic;html=1;rounded=0;" edge="1" parent="1" source="QuSLitA5PdBHhPOCg3-z-9" target="QuSLitA5PdBHhPOCg3-z-1">
          <mxGeometry width="50" height="50" relative="1" as="geometry">
            <mxPoint x="30" y="339.9999999999999" as="sourcePoint" />
            <mxPoint x="80" y="289.9999999999999" as="targetPoint" />
          </mxGeometry>
        </mxCell>
        <mxCell id="QuSLitA5PdBHhPOCg3-z-11" value="api" style="edgeLabel;html=1;align=center;verticalAlign=middle;resizable=0;points=[];" vertex="1" connectable="0" parent="QuSLitA5PdBHhPOCg3-z-10">
          <mxGeometry x="0.1917" y="2" relative="1" as="geometry">
            <mxPoint x="-18" as="offset" />
          </mxGeometry>
        </mxCell>
      </root>
    </mxGraphModel>
  </diagram>
</mxfile>
